<svg xmlns="http://www.w3.org/2000/svg" viewBox="0 0 510 365" width="510" height="365" role="img" aria-label="متابعة معاملاتك بكل سهولة"><defs><linearGradient id="bg" x1="0" x2="1"><stop stop-color="#f8fbfa"/><stop offset="1" stop-color="#ffffff"/></linearGradient><linearGradient id="green" x1="0" x2="1"><stop stop-color="#063f32"/><stop offset="1" stop-color="#087a4b"/></linearGradient><filter id="shadow"><feDropShadow dx="0" dy="22" stdDeviation="18" flood-color="#0b2a4a" flood-opacity=".22"/></filter></defs><rect width="510" height="365" fill="url(#bg)"/><g opacity=".16" stroke="#d4a94f"><path d="M410 20c15 25 12 48-6 71"/><path d="M440 32c-28 18-35 42-22 71"/></g><g transform="translate(30 58)" filter="url(#shadow)"><g transform="rotate(-2 44 98)"><rect x="0" y="0" width="85" height="150" rx="12" fill="url(#green)"/><text x="42" y="42" text-anchor="middle" fill="#fff" font-size="20" font-weight="900">خدمة وطن</text><text x="42" y="68" text-anchor="middle" fill="#fff" font-size="20" font-weight="900">لأجل الوطن</text><text x="42" y="121" text-anchor="middle" fill="#f5d783" font-size="30" font-weight="900">96</text></g></g><g transform="translate(12 214)"><path d="M0 94c34-22 120-21 160 0z" fill="#edf2f4"/><g fill="#fff" stroke="#e1e9ee"><rect x="0" y="10" width="140" height="20" rx="3"/><rect x="4" y="30" width="150" height="20" rx="3"/><rect x="8" y="50" width="144" height="20" rx="3"/><rect x="12" y="70" width="133" height="20" rx="3"/></g><g transform="translate(54 64) rotate(-7)"><rect width="75" height="26" rx="2" fill="#fff" stroke="#087a4b" stroke-width="3"/><text x="38" y="18" text-anchor="middle" fill="#087a4b" font-size="14" font-weight="900">تم الإنجاز</text></g></g><g transform="translate(118 78)" filter="url(#shadow)"><rect width="255" height="165" rx="18" fill="#142f42"/><rect x="10" y="10" width="235" height="145" rx="12" fill="#ffffff"/><text x="130" y="38" text-anchor="middle" fill="#0b2a4a" font-size="18" font-weight="900">متابعة معاملاتك بكل سهولة</text><g transform="translate(30 58)"><rect width="190" height="28" rx="8" fill="#f4f8f6"/><text x="102" y="18" text-anchor="middle" fill="#0b2a4a" font-size="13" font-weight="800">تقديم الطلب</text><rect x="156" y="6" width="16" height="16" rx="4" fill="#087a4b"/><path d="M160 14l4 4 8-9" stroke="#fff" stroke-width="2" fill="none"/></g><g transform="translate(30 94)"><rect width="190" height="28" rx="8" fill="#f4f8f6"/><text x="102" y="18" text-anchor="middle" fill="#0b2a4a" font-size="13" font-weight="800">متابعة الإجراءات</text><rect x="156" y="6" width="16" height="16" rx="4" fill="#087a4b"/><path d="M160 14l4 4 8-9" stroke="#fff" stroke-width="2" fill="none"/></g><g transform="translate(30 130)"><rect width="190" height="18" rx="8" fill="#eef5f2"/></g></g><g transform="translate(300 120)" filter="url(#shadow)"><rect width="95" height="190" rx="24" fill="#132b3b"/><rect x="8" y="10" width="79" height="170" rx="18" fill="#fff"/><text x="48" y="43" text-anchor="middle" fill="#0b2a4a" font-size="15" font-weight="900">إنجازك</text><g transform="translate(20 64)" fill="#e9f8f1"><rect width="54" height="20" rx="6"/><rect y="29" width="54" height="20" rx="6"/><rect y="58" width="54" height="20" rx="6"/></g><g transform="translate(28 69)" fill="#087a4b" font-size="10" font-weight="800"><text>أسرع</text><text y="29">أسهل</text><text y="58">أكثر أمانًا</text></g><rect x="24" y="150" width="48" height="18" rx="9" fill="#087a4b"/></g></svg>