<svg xmlns="http://www.w3.org/2000/svg" viewBox="0 0 1024 120" width="1024" height="120" role="img" aria-label="موسم اليوم الوطني السعودي 96 - إنجازك"><defs><linearGradient id="g" x1="0" x2="1"><stop stop-color="#063f32"/><stop offset=".45" stop-color="#07553f"/><stop offset="1" stop-color="#092f36"/></linearGradient><linearGradient id="gold" x1="0" x2="1"><stop stop-color="#f6dda2"/><stop offset="1" stop-color="#c89535"/></linearGradient><filter id="s"><feDropShadow dx="0" dy="8" stdDeviation="10" flood-opacity=".28"/></filter></defs><rect width="1024" height="120" fill="url(#g)"/><g opacity=".18"><path d="M0 0h1024v120H0z" fill="none"/><path d="M0 86c95-30 171-20 245-7s145 32 220 9 142-78 246-66 164 72 313 43v55H0z" fill="#fff"/></g><g opacity=".18" stroke="#f5d783"><path d="M0 110H1024"/><path d="M0 20H1024"/></g><g transform="translate(112 18)" fill="#08334a" opacity=".55"><rect x="0" y="58" width="16" height="38"/><rect x="25" y="46" width="14" height="50"/><rect x="50" y="28" width="22" height="68"/><rect x="84" y="53" width="18" height="43"/><path d="M126 96V35l27-13 28 13v61z"/><rect x="203" y="12" width="28" height="84" rx="3"/><rect x="246" y="40" width="18" height="56"/><rect x="276" y="22" width="13" height="74"/><path d="M330 96V10l34 40-34 46z"/><rect x="398" y="34" width="20" height="62"/><rect x="432" y="52" width="15" height="44"/></g><g transform="translate(23 16)" fill="#fff"><path d="M0 10c45-16 80-5 118 23-36-6-70-2-104 9z" opacity=".92"/><path d="M0 33c46-14 82-4 124 29-43-12-78-6-115 10z" opacity=".8"/><text x="26" y="48" font-size="18" font-weight="800">راية الوطن</text></g><text x="528" y="35" text-anchor="middle" fill="#f7df9f" font-size="19" font-weight="800">معًا في كل خطوة</text><text x="528" y="68" text-anchor="middle" fill="#fff" font-size="24" font-weight="900">كل معاملة نخدمها.. هي خدمة لوطن أعظم</text><text x="528" y="91" text-anchor="middle" fill="#dcece5" font-size="12" font-weight="600">معًا لمستقبل أكثر إنجازًا</text><g transform="translate(660 23)"><text x="0" y="38" fill="#f6dda2" font-size="54" font-weight="900">96</text><text x="72" y="32" fill="#fff" font-size="13" font-weight="700">عامًا من المجد والإنجاز</text><text x="72" y="52" fill="#fff" font-size="13" font-weight="700">وطنًا مصدر فخرنا</text></g><g transform="translate(860 23)" filter="url(#s)"><g fill="url(#gold)"><path d="M0 0h35c-8 14-22 19-35 18z"/><path d="M0 25h29c-6 12-18 17-29 16z"/><path d="M0 48h23c-5 10-14 14-23 13z"/></g><text x="47" y="24" fill="#fff" font-size="35" font-weight="900">إنجازك</text><text x="50" y="48" fill="#dcece5" font-size="12" font-weight="700">لخدمات وتعقيب المعاملات</text></g><g transform="translate(748 74)"><rect width="126" height="34" rx="17" fill="#07834e"/><circle cx="106" cy="17" r="12" fill="#fff" opacity=".16"/><text x="52" y="20" text-anchor="middle" fill="#fff" font-size="13" font-weight="800">0590097275</text></g></svg>